<?xml version="1.0" encoding="utf-8"?>
<!-- Generator: Adobe Illustrator 25.0.0, SVG Export Plug-In . SVG Version: 6.00 Build 0)  -->
<!DOCTYPE svg PUBLIC "-//W3C//DTD SVG 1.1//EN" "http://www.w3.org/Graphics/SVG/1.1/DTD/svg11.dtd" [
	<!ENTITY ns_extend "http://ns.adobe.com/Extensibility/1.0/">
	<!ENTITY ns_ai "http://ns.adobe.com/AdobeIllustrator/10.0/">
	<!ENTITY ns_graphs "http://ns.adobe.com/Graphs/1.0/">
	<!ENTITY ns_vars "http://ns.adobe.com/Variables/1.0/">
	<!ENTITY ns_imrep "http://ns.adobe.com/ImageReplacement/1.0/">
	<!ENTITY ns_sfw "http://ns.adobe.com/SaveForWeb/1.0/">
	<!ENTITY ns_custom "http://ns.adobe.com/GenericCustomNamespace/1.0/">
	<!ENTITY ns_adobe_xpath "http://ns.adobe.com/XPath/1.0/">
]>
<svg version="1.1" id="Layer_1" xmlns:x="&ns_extend;" xmlns:i="&ns_ai;" xmlns:graph="&ns_graphs;"
	 xmlns="http://www.w3.org/2000/svg" xmlns:xlink="http://www.w3.org/1999/xlink" x="0px" y="0px" viewBox="0 0 860.4 178.8"
	 style="enable-background:new 0 0 860.4 178.8;" xml:space="preserve">
<style type="text/css">
	.st0{fill:#000028;}
	.st1{fill:#E0C6AC;}
	.st2{fill:#FFFFFF;}
	.st3{clip-path:url(#SVGID_2_);}
</style>
<metadata>
	<sfw  xmlns="&ns_sfw;">
		<slices></slices>
		<sliceSourceBounds  bottomLeftOrigin="true" height="177.8" width="859.4" x="286.8" y="358.6"></sliceSourceBounds>
		<optimizationSettings>
			<targetSettings  fileFormat="PNG24Format" targetSettingsID="0">
				<PNG24Format  filtered="false" interlaced="false" matteColor="#FFFFFF" noMatteColor="false" transparency="true">
					</PNG24Format>
			</targetSettings>
		</optimizationSettings>
	</sfw>
</metadata>
<g>
	<g>
		<g>
			<g>
				<path class="st0" d="M233.2,77.8c-3.6,0-6.5,2.9-6.5,6.5c0,0.5,0.1,0.9,0.1,1.4c-1.7,1.5-5.3,3.7-11.2,3.7
					c-8.8,0-31.5-6.7-20.7-43.3c2.3-1.3,3.8-3.8,3.8-6.6c0-4.2-3.4-7.6-7.6-7.6s-7.6,3.4-7.6,7.6c0,1.3,0.3,2.5,0.9,3.6
					c-2.7,4.9-13.9,23.2-29.3,23.2c-17.2,0-31.7-19.5-29.1-49.1c2-1.8,3.2-4.3,3.2-7.1c0-5.3-4.3-9.6-9.6-9.6
					c-5.3,0-9.6,4.3-9.6,9.6c0,2.8,1.2,5.2,3.1,7c0.4,10.1-0.2,43.3-26,49.7c0,0-19.8,1.2-32.1-23.9c0.5-1,0.7-2.1,0.7-3.3
					c0-4.3-3.5-7.9-7.9-7.9c-4.3,0-7.9,3.5-7.9,7.9c0,3.6,2.4,6.6,5.7,7.5c1.2,6.3,4.7,30.5-9.7,39.3C27.8,91.5,15,86,12,84.6
					c0-0.1,0-0.2,0-0.3c0-3.2-2.6-5.7-5.7-5.7c-3.2,0-5.7,2.6-5.7,5.7c0,3.2,2.6,5.7,5.7,5.7c0.1,0,0.2,0,0.3,0
					C18,112.7,26.7,138.1,30,151.1c3.3,13.1,49.2,28.6,89.8,25.8c40.5-2.8,65.4-0.5,86.9-22c9.4-27.4,16.7-52.9,25.4-64.1
					c0.4,0.1,0.7,0.1,1.1,0.1c3.6,0,6.5-2.9,6.5-6.5C239.7,80.7,236.8,77.8,233.2,77.8z"/>
			</g>
		</g>
		<g>
			<g>
				<g>
					<circle class="st1" cx="119.7" cy="10.1" r="9.6"/>
				</g>
			</g>
			<g>
				<g>
					<circle class="st1" cx="191.1" cy="39.5" r="7.6"/>
				</g>
			</g>
			<g>
				<g>
					<circle class="st1" cx="233.2" cy="84.3" r="6.5"/>
				</g>
			</g>
			<g>
				<g>
					<circle class="st1" cx="6.2" cy="84.3" r="5.7"/>
				</g>
			</g>
			<g>
				<g>
					<circle class="st1" cx="48" cy="39.5" r="7.9"/>
				</g>
			</g>
			<g>
				<g>
					<path class="st1" d="M28.6,151.4C25.7,139.7,17,113.7,5,90l-0.5-0.9l6.5-6.5L12,83c0.1,0.1,14.7,7.5,23.4,2.2
						c15.6-9.5,8.8-39,8.7-39.3l-0.3-1.1L55,39.2l0.6,1.3C66.7,65.2,85.3,65.4,87,65.3c28.8-7.2,24.6-50.6,24.6-51.1l-0.2-1.6
						l16.6,0l-0.2,1.6c-2.2,17.2,1.4,32.5,9.7,42c4.9,5.5,11.1,8.6,17.6,8.6c16.7,0,28.6-23.4,28.7-23.6l0.5-1l12.7,3.4l-0.4,1.4
						c-4.7,15.1-4.3,26.6,1.3,34.2c4.7,6.4,12.5,8.7,17.7,8.7c8,0,11.2-4.3,11.3-4.5l1-1.3l7.2,7.2l-0.9,1
						c-7.2,8.2-13.5,27.1-20.8,48.9c-1.7,5.2-3.5,10.6-5.4,16.1l-0.1,0.3l-0.2,0.2c-21.1,23.1-87.8,22.4-87.8,22.4
						C89.3,178.3,38.6,171.4,28.6,151.4z M56.5,167c16.5,5.7,39,9.8,61.2,8.6C97.8,175.4,73.9,172.6,56.5,167z M188.7,165.9
						c-8.2,3.1-18.7,5.5-30.4,7.2C169.9,171.9,179.8,170.1,188.7,165.9z M119.8,122.6c-34.6,0-84.9,9.5-84.9,24.4
						c0,15.4,43.9,25.8,84.9,25.8c40,0,82.9-8.9,82.9-22.1C202.6,133.3,170.9,122.6,119.8,122.6z M8,89.6
						c10.6,21.2,19.8,46.7,23.4,61.1c0.8,3.2,4.8,6.8,11.2,10.2C36,157.1,32,152.5,32,147c0-19,58.1-27.2,87.7-27.2
						c53.7,0,85.7,11.6,85.7,30.9c0,1.6-0.5,3.2-1.3,4.7c0.4-0.4,0.9-0.8,1.3-1.3c1.8-5.4,3.6-10.6,5.3-15.7
						c7.1-21.3,13.3-39.8,20.5-48.9l-3.1-3.1c-1.8,1.7-5.7,4.4-12.5,4.4c-5.9,0-14.6-2.6-19.9-9.9c-6-8.1-6.7-20-2.1-35.3l-7.7-2
						c-2.6,4.8-14.2,24.1-30.7,24.1c-7.3,0-14.3-3.4-19.7-9.5c-8.6-9.8-12.4-25.2-10.6-42.6h-10.3c0.5,8.1,1,45.7-27,52.6l-0.3,0
						c-0.9,0-21.2,0.9-33.6-25.1l-6.6,3.3c1.2,5.7,5.4,31.7-10.2,41.3c-8.7,5.3-21.6,0-25.2-1.6L8,89.6z"/>
				</g>
			</g>
			<g>
				<g>
					<g>
						<path class="st1" d="M188,158.3c-0.6,0-1.1-0.3-1.3-0.9c-0.3-0.7,0.1-1.5,0.8-1.8c4.9-2,7.9-3.6,9.4-4.4l0.4-0.2
							c0.7-0.4,1.5-0.1,1.9,0.6c0.4,0.7,0.1,1.5-0.6,1.9l-0.3,0.2c-1.5,0.8-4.7,2.5-9.7,4.5C188.3,158.3,188.1,158.3,188,158.3z"/>
					</g>
				</g>
				<g>
					<g>
						<path class="st1" d="M123,169.1c-26.3,0-45.4-3.6-56.7-6.5c-0.8-0.2-1.2-1-1-1.7c0.2-0.8,1-1.2,1.7-1c11.2,2.9,30,6.4,56,6.4
							c19.3,0,36.8-2.2,52.1-6.6c0.7-0.2,1.5,0.2,1.7,1c0.2,0.7-0.2,1.5-1,1.7C160.3,166.9,142.5,169.1,123,169.1z"/>
					</g>
				</g>
				<g>
					<g>
						<path class="st1" d="M53.2,158.3c-0.2,0-0.4,0-0.5-0.1c-4.4-1.7-7.7-3.5-9.2-4.9c-0.6-0.5-0.6-1.4-0.1-2
							c0.5-0.6,1.4-0.6,2-0.1c0.9,0.9,3.6,2.5,8.3,4.4c0.7,0.3,1.1,1.1,0.8,1.8C54.3,158,53.8,158.3,53.2,158.3z"/>
					</g>
				</g>
				<g>
					<g>
						<path class="st1" d="M54.9,148.7c-0.2,0-0.4,0-0.5-0.1c-3.8-1.6-6.3-3-7.5-3.6c-0.7-0.4-0.9-1.2-0.5-1.9
							c0.4-0.7,1.2-0.9,1.9-0.5c1.1,0.6,3.4,1.9,7.1,3.5c0.7,0.3,1.1,1.1,0.7,1.8C56,148.4,55.4,148.7,54.9,148.7z"/>
					</g>
				</g>
				<g>
					<g>
						<path class="st1" d="M121.2,160.2c-26,0-45-4.2-56.3-7.8c-0.7-0.2-1.2-1-0.9-1.8c0.2-0.7,1-1.2,1.8-0.9
							c11.2,3.5,29.8,7.7,55.5,7.7c41.3,0,65.8-10.2,71.2-15.1c0.6-0.5,1.5-0.5,2,0.1c0.5,0.6,0.5,1.5-0.1,2
							C189.8,148.5,166.6,160.2,121.2,160.2z"/>
					</g>
				</g>
				<g>
					<g>
						<path class="st1" d="M179.8,142.9c-0.6,0-1.1-0.4-1.3-0.9c-0.3-0.7,0.1-1.5,0.8-1.8c1.6-0.6,3.1-1.2,4.6-1.9
							c0.7-0.3,1.5,0,1.8,0.7c0.3,0.7,0,1.5-0.7,1.8c-1.5,0.7-3.1,1.3-4.8,1.9C180.1,142.9,179.9,142.9,179.8,142.9z"/>
					</g>
				</g>
				<g>
					<g>
						<path class="st1" d="M122.4,151.5c-14.3,0-27.9-1.2-39-3c-0.8-0.1-1.3-0.8-1.2-1.6c0.1-0.8,0.8-1.3,1.6-1.2
							c23.2,3.7,57.9,4.9,85.7-2.5c0.7-0.2,1.5,0.2,1.7,1c0.2,0.8-0.2,1.5-1,1.7C155.4,149.9,138.5,151.5,122.4,151.5z"/>
					</g>
				</g>
				<g>
					<g>
						<path class="st1" d="M76.4,147.2c-0.1,0-0.2,0-0.3,0c-2.9-0.6-6.9-1.6-9-2.6c-0.7-0.3-1-1.2-0.7-1.9c0.3-0.7,1.2-1,1.9-0.7
							c1.4,0.7,4.5,1.5,8.4,2.4c0.8,0.2,1.2,0.9,1.1,1.7C77.7,146.8,77.1,147.2,76.4,147.2z"/>
					</g>
				</g>
				<g>
					<g>
						<path class="st1" d="M66.7,136.3c-0.1,0-0.2,0-0.4-0.1c-1.9-0.5-3.4-1-4.3-1.5c-0.7-0.3-1-1.2-0.7-1.9c0.3-0.7,1.2-1,1.9-0.7
							c0.6,0.3,1.7,0.7,3.9,1.3c0.7,0.2,1.2,1,1,1.7C67.9,135.9,67.3,136.3,66.7,136.3z"/>
					</g>
				</g>
				<g>
					<g>
						<path class="st1" d="M119.8,142.9c-14.9,0-32.3-2.3-43.6-4.4c-0.8-0.1-1.3-0.9-1.1-1.6c0.1-0.8,0.9-1.3,1.6-1.1
							c11.2,2.1,28.4,4.4,43.1,4.4c11.8,0,23.9-1,35.1-2.9c0.8-0.1,1.5,0.4,1.6,1.1s-0.4,1.5-1.1,1.6
							C144,141.9,131.7,142.9,119.8,142.9z"/>
					</g>
				</g>
				<g>
					<g>
						<path class="st1" d="M169.4,136.8c-0.6,0-1.2-0.4-1.4-1c-0.2-0.7,0.2-1.5,1-1.7c2.2-0.6,4.2-1.2,6.1-1.9
							c0.7-0.3,1.5,0.1,1.8,0.9c0.3,0.7-0.1,1.5-0.9,1.8c-1.9,0.7-4,1.3-6.2,1.9C169.6,136.8,169.5,136.8,169.4,136.8z"/>
					</g>
				</g>
				<g>
					<g>
						<path class="st1" d="M139.7,133.7c-0.7,0-1.3-0.6-1.4-1.3c-0.1-0.8,0.5-1.4,1.3-1.5c5-0.4,9.5-0.9,13.4-1.8
							c0.8-0.2,1.5,0.3,1.7,1.1c0.2,0.8-0.3,1.5-1.1,1.7C149.6,132.7,144.9,133.3,139.7,133.7C139.7,133.6,139.7,133.7,139.7,133.7z
							"/>
					</g>
				</g>
				<g>
					<g>
						<path class="st1" d="M127.8,134c-13,0-25.2-1.3-28.4-2.2c-0.7-0.2-1.2-1-0.9-1.8c0.2-0.7,1-1.2,1.8-0.9
							c2.5,0.7,14.1,2.1,27.5,2.1c0.1,0,0.1,0,0.2,0h0c0.8,0,1.4,0.6,1.4,1.4c0,0.8-0.6,1.4-1.4,1.4C127.9,134,127.8,134,127.8,134z
							"/>
					</g>
				</g>
			</g>
			<g>
				<g>
					<g>
						<path class="st2" d="M116.7,71.4c5.2,11.8,11.4,27.4,11.4,31.8c0,6.3-5.1,11.4-11.4,11.4c-6.3,0-11.4-5.1-11.4-11.4
							C105.4,98.7,111.5,83.2,116.7,71.4 M116.7,64.1c0,0-14.3,31.2-14.3,39.1c0,7.9,6.4,14.3,14.3,14.3c7.9,0,14.3-6.4,14.3-14.3
							C131,95.3,116.7,64.1,116.7,64.1L116.7,64.1z"/>
					</g>
				</g>
				<g>
					<g>
						<path class="st2" d="M116.7,87.2c2.5,5.8,5.2,12.8,5.2,14.8c0,2.9-2.3,5.2-5.2,5.2c-2.9,0-5.2-2.3-5.2-5.2
							C111.5,100,114.2,92.9,116.7,87.2 M116.7,82.3c0,0-7.2,15.7-7.2,19.7c0,4,3.2,7.2,7.2,7.2s7.2-3.2,7.2-7.2
							C123.9,98,116.7,82.3,116.7,82.3L116.7,82.3z"/>
					</g>
				</g>
			</g>
			<g>
				<g>
					<defs>
						<path id="SVGID_1_" d="M228.1,84.3c0,0-3.6,5.1-12.5,5.1c-8.9,0-32.2-6.9-20.3-44.8l-10.2-2.7c0,0-12.2,24.4-30,24.4
							c-17.8,0-32.7-20.8-28.8-52.1H113c0,0,4.7,45.1-25.8,52.6c0,0-20.8,1.2-32.9-25.6l-8.8,4.5c0,0,7.3,30.7-9.4,40.8
							c-9.4,5.8-24.8-2.1-24.8-2.1l-5.1,5.1C17.8,112.2,26.7,138,30,151.1c3.3,13.1,49.1,25.8,89.8,25.8c41.4,0,65.4-0.5,86.9-22
							c9.8-28.6,17.3-55,26.5-65.5L228.1,84.3z M119.8,174.2c-40.5,0-86.3-10.1-86.3-27.2s54.4-25.8,86.3-25.8
							c53.9,0,84.3,11.5,84.3,29.5C204,165.4,160.2,174.2,119.8,174.2z"/>
					</defs>
					<clipPath id="SVGID_2_">
						<use xlink:href="#SVGID_1_"  style="overflow:visible;"/>
					</clipPath>
					<g class="st3">
						<g>
							<g>
								<path class="st1" d="M17.5,19.1c-1.2-0.1-2.2,0.8-2.3,2L3.1,162c-0.1,1.2,0.8,2.2,2,2.3c0.1,0,0.1,0,0.2,0
									c1.1,0,2.1-0.9,2.2-2l12-140.9C19.6,20.2,18.7,19.2,17.5,19.1z"/>
							</g>
						</g>
						<g>
							<g>
								<path class="st1" d="M27.8,19.1c-1.2-0.1-2.2,0.8-2.3,2L13.5,162c-0.1,1.2,0.8,2.2,2,2.3c0.1,0,0.1,0,0.2,0
									c1.1,0,2.1-0.9,2.2-2l12-140.9C29.9,20.2,29,19.2,27.8,19.1z"/>
							</g>
						</g>
						<g>
							<g>
								<path class="st1" d="M38.2,19.1c-1.2-0.1-2.2,0.8-2.3,2L23.8,162c-0.1,1.2,0.8,2.2,2,2.3c0.1,0,0.1,0,0.2,0
									c1.1,0,2.1-0.9,2.2-2l12-140.9C40.2,20.2,39.4,19.2,38.2,19.1z"/>
							</g>
						</g>
						<g>
							<g>
								<path class="st1" d="M48.5,19.1c-1.2-0.1-2.2,0.8-2.3,2L34.1,162c-0.1,1.2,0.8,2.2,2,2.3c0.1,0,0.1,0,0.2,0
									c1.1,0,2.1-0.9,2.2-2l12-140.9C50.6,20.2,49.7,19.2,48.5,19.1z"/>
							</g>
						</g>
						<g>
							<g>
								<path class="st1" d="M58.8,19.1c-1.2-0.1-2.2,0.8-2.3,2L44.4,162c-0.1,1.2,0.8,2.2,2,2.3c0.1,0,0.1,0,0.2,0
									c1.1,0,2.1-0.9,2.2-2l12-140.9C60.9,20.2,60,19.2,58.8,19.1z"/>
							</g>
						</g>
						<g>
							<g>
								<path class="st1" d="M69.1,19.1c-1.2-0.1-2.2,0.8-2.3,2L54.7,162c-0.1,1.2,0.8,2.2,2,2.3c0.1,0,0.1,0,0.2,0
									c1.1,0,2.1-0.9,2.2-2l12-140.9C71.2,20.2,70.3,19.2,69.1,19.1z"/>
							</g>
						</g>
						<g>
							<g>
								<path class="st1" d="M79.4,19.1c-1.2-0.1-2.2,0.8-2.3,2L65.1,162c-0.1,1.2,0.8,2.2,2,2.3c0.1,0,0.1,0,0.2,0
									c1.1,0,2.1-0.9,2.2-2l12-140.9C81.5,20.2,80.6,19.2,79.4,19.1z"/>
							</g>
						</g>
						<g>
							<g>
								<path class="st1" d="M89.8,19.1c-1.2-0.1-2.2,0.8-2.3,2L75.4,162c-0.1,1.2,0.8,2.2,2,2.3c0.1,0,0.1,0,0.2,0
									c1.1,0,2.1-0.9,2.2-2l12-140.9C91.8,20.2,91,19.2,89.8,19.1z"/>
							</g>
						</g>
						<g>
							<g>
								<path class="st1" d="M100.1,19.1c-1.2-0.1-2.2,0.8-2.3,2L85.7,162c-0.1,1.2,0.8,2.2,2,2.3c0.1,0,0.1,0,0.2,0
									c1.1,0,2.1-0.9,2.2-2l12-140.9C102.2,20.2,101.3,19.2,100.1,19.1z"/>
							</g>
						</g>
						<g>
							<g>
								<path class="st1" d="M112.4,21.4c0.1-1.2-0.8-2.2-2-2.3c-1.2-0.1-2.2,0.8-2.3,2l-6,70.4c1.6-4.7,3.6-9.8,5.6-14.8
									L112.4,21.4z"/>
							</g>
						</g>
						<g>
							<g>
								<path class="st1" d="M100.3,112.1L96,162c-0.1,1.2,0.8,2.2,2,2.3c0.1,0,0.1,0,0.2,0c1.1,0,2.1-0.9,2.2-2l3.8-44.6
									C102.5,116.1,101.2,114.2,100.3,112.1z"/>
							</g>
						</g>
						<g>
							<g>
								<path class="st1" d="M106.3,162c-0.1,1.2,0.8,2.2,2,2.3c0.1,0,0.1,0,0.2,0c1.1,0,2.1-0.9,2.2-2l3.4-39.6
									c-1.5-0.2-2.9-0.6-4.2-1.2L106.3,162z"/>
							</g>
						</g>
						<g>
							<g>
								<path class="st1" d="M119.4,60.5l3.3-39c0.1-1.2-0.8-2.2-2-2.3c-1.2-0.1-2.2,0.8-2.3,2l-3.3,38.1c1.1-2.5,1.8-4.1,1.8-4.1
									S117.9,57.2,119.4,60.5z"/>
							</g>
						</g>
						<g>
							<g>
								<path class="st1" d="M116.6,162c-0.1,1.2,0.8,2.2,2,2.3c0.1,0,0.1,0,0.2,0c1.1,0,2.1-0.9,2.2-2l3.5-41
									c-1.4,0.6-2.9,1.1-4.5,1.4L116.6,162z"/>
							</g>
						</g>
						<g>
							<g>
								<path class="st1" d="M133,21.4c0.1-1.2-0.8-2.2-2-2.3c-1.2-0.1-2.2,0.8-2.3,2l-4.4,51c1.2,2.8,2.4,5.8,3.6,8.8L133,21.4z"/>
							</g>
						</g>
						<g>
							<g>
								<path class="st1" d="M141.3,19.1c-1.2-0.1-2.2,0.8-2.3,2l-6.2,73.1c1.4,4.5,2.4,8.3,2.4,10.6c0,4.5-1.6,8.6-4.3,11.7
									L127,162c-0.1,1.2,0.8,2.2,2,2.3c0.1,0,0.1,0,0.2,0c1.1,0,2.1-0.9,2.2-2l12-140.9C143.4,20.2,142.5,19.2,141.3,19.1z"/>
							</g>
						</g>
						<g>
							<g>
								<path class="st1" d="M151.7,19.1c-1.2-0.1-2.2,0.8-2.3,2l-12,140.9c-0.1,1.2,0.8,2.2,2,2.3c0.1,0,0.1,0,0.2,0
									c1.1,0,2.1-0.9,2.2-2l12-140.9C153.7,20.2,152.9,19.2,151.7,19.1z"/>
							</g>
						</g>
						<g>
							<g>
								<path class="st1" d="M162,19.1c-1.2-0.1-2.2,0.8-2.3,2l-12,140.9c-0.1,1.2,0.8,2.2,2,2.3c0.1,0,0.1,0,0.2,0
									c1.1,0,2.1-0.9,2.2-2l12-140.9C164.1,20.2,163.2,19.2,162,19.1z"/>
							</g>
						</g>
						<g>
							<g>
								<path class="st1" d="M172.3,19.1c-1.2-0.1-2.2,0.8-2.3,2l-12,140.9c-0.1,1.2,0.8,2.2,2,2.3c0.1,0,0.1,0,0.2,0
									c1.1,0,2.1-0.9,2.2-2l12-140.9C174.4,20.2,173.5,19.2,172.3,19.1z"/>
							</g>
						</g>
						<g>
							<g>
								<path class="st1" d="M182.6,19.1c-1.2-0.1-2.2,0.8-2.3,2l-12,140.9c-0.1,1.2,0.8,2.2,2,2.3c0.1,0,0.1,0,0.2,0
									c1.1,0,2.1-0.9,2.2-2l12-140.9C184.7,20.2,183.8,19.2,182.6,19.1z"/>
							</g>
						</g>
						<g>
							<g>
								<path class="st1" d="M192.9,19.1c-1.2-0.1-2.2,0.8-2.3,2l-12,140.9c-0.1,1.2,0.8,2.2,2,2.3c0.1,0,0.1,0,0.2,0
									c1.1,0,2.1-0.9,2.2-2l12-140.9C195,20.2,194.1,19.2,192.9,19.1z"/>
							</g>
						</g>
						<g>
							<g>
								<path class="st1" d="M203.3,19.1c-1.2-0.1-2.2,0.8-2.3,2l-12,140.9c-0.1,1.2,0.8,2.2,2,2.3c0.1,0,0.1,0,0.2,0
									c1.1,0,2.1-0.9,2.2-2l12-140.9C205.3,20.2,204.5,19.2,203.3,19.1z"/>
							</g>
						</g>
						<g>
							<g>
								<path class="st1" d="M213.6,19.1c-1.2-0.1-2.2,0.8-2.3,2l-12,140.9c-0.1,1.2,0.8,2.2,2,2.3c0.1,0,0.1,0,0.2,0
									c1.1,0,2.1-0.9,2.2-2l12-140.9C215.7,20.2,214.8,19.2,213.6,19.1z"/>
							</g>
						</g>
						<g>
							<g>
								<path class="st1" d="M223.9,19.1c-1.2-0.1-2.2,0.8-2.3,2l-12,140.9c-0.1,1.2,0.8,2.2,2,2.3c0.1,0,0.1,0,0.2,0
									c1.1,0,2.1-0.9,2.2-2l12-140.9C226,20.2,225.1,19.2,223.9,19.1z"/>
							</g>
						</g>
						<g>
							<g>
								<path class="st1" d="M234.2,19.1c-1.2-0.1-2.2,0.8-2.3,2l-12,140.9c-0.1,1.2,0.8,2.2,2,2.3c0.1,0,0.1,0,0.2,0
									c1.1,0,2.1-0.9,2.2-2l12-140.9C236.3,20.2,235.4,19.2,234.2,19.1z"/>
							</g>
						</g>
					</g>
				</g>
			</g>
		</g>
	</g>
	<g>
		<path class="st2" d="M334.2,98.2l-18.4-28.8c-0.6,0.1-1.4,0.1-2.6,0.1h-11.6v28.7h-10.5V20.1h20.8c5.3,0,10.1,0.9,14.3,2.8
			c4.2,1.9,7.5,4.6,9.8,8.3c2.4,3.6,3.6,8,3.6,13.1c0,4.8-1.1,9.3-3.2,13.3c-2.1,4-5.4,7.1-9.8,9.2l19.7,31.4H334.2z M325.2,54.9
			c2.5-3,3.7-6.3,3.7-10.2c0-2.3-0.5-4.6-1.6-6.8c-1-2.2-2.7-4.1-5-5.6c-2.3-1.5-5.1-2.2-8.6-2.2h-12.1v29.2H313
			C318.7,59.3,322.7,57.8,325.2,54.9z"/>
		<path class="st2" d="M390.5,86.7l4.6,7.5c-2.4,1.6-5,2.8-7.7,3.7c-2.8,0.9-5.5,1.3-8,1.3c-5,0-9.3-1-13-3.1
			c-3.7-2.1-6.6-4.9-8.6-8.5c-2-3.6-3-7.7-3-12.2c0-4.4,1.1-8.4,3.3-12c2.2-3.6,5.2-6.5,9-8.6c3.8-2.1,8-3.2,12.5-3.2
			c5.8,0,10.7,1.7,14.6,5.1c3.9,3.4,6.6,8.2,8,14.3l-35.4,12.4c1.3,2.2,3,4,5.2,5.2c2.2,1.3,4.7,1.9,7.5,1.9
			C383.3,90.6,386.9,89.3,390.5,86.7z M368.7,63.9c-2.7,2.9-4,6.6-4,11c0,1.1,0,1.9,0.1,2.5l26-9.6c-1.1-2.4-2.6-4.4-4.6-5.9
			c-2-1.5-4.4-2.3-7.4-2.3C374.7,59.6,371.3,61.1,368.7,63.9z"/>
		<path class="st2" d="M460.7,53.5v44.7h-10v-7.3c-1.6,2.1-3.9,4-6.9,5.8c-3,1.8-6.4,2.6-10.3,2.6c-4.2,0-8.1-0.9-11.5-2.8
			c-3.4-1.8-6.1-4.5-8.1-8c-2-3.5-3-7.7-3-12.6c0-4.9,1-9.2,3.1-12.8c2.1-3.6,4.8-6.4,8.3-8.4c3.5-2,7.4-3,11.6-3
			c3.8,0,7.1,0.8,9.9,2.5c2.8,1.7,5.1,3.8,6.8,6.5l0.8-7.1H460.7z M445.6,87.9c2.6-2.1,4.3-4.8,5-8.4v-8.9c-0.9-3.2-2.7-5.7-5.4-7.7
			c-2.7-2-5.9-3-9.4-3c-2.7,0-5.1,0.6-7.4,1.9s-4.1,3.1-5.4,5.5c-1.3,2.3-2,5-2,7.9c0,2.9,0.7,5.5,2.1,7.9c1.4,2.4,3.2,4.3,5.5,5.7
			c2.3,1.4,4.8,2.1,7.6,2.1C439.8,90.9,443,89.9,445.6,87.9z"/>
		<path class="st2" d="M488.2,14.5v83.7h-10V14.5H488.2z"/>
		<path class="st2" d="M573.7,30.4c-3.2-0.9-6.2-1.4-9-1.4c-4.2,0-7.6,1-10.1,2.9c-2.5,1.9-3.7,4.5-3.7,7.8c0,3.2,1.5,5.9,4.4,7.9
			c2.9,2.1,7.1,4.1,12.5,6.1c4,1.4,7.4,3,10.2,4.7c2.8,1.7,5.1,4,6.9,7c1.8,3,2.8,6.8,2.8,11.4c0,4.2-1,8-3.1,11.3
			c-2.1,3.4-5.1,6-8.9,8c-3.9,1.9-8.4,2.9-13.6,2.9c-4.8,0-9.5-0.8-13.9-2.3c-4.5-1.5-8.4-3.5-11.8-5.9l4.6-8.3
			c2.7,2,5.9,3.7,9.6,5.1c3.7,1.4,7.2,2.1,10.5,2.1c4.2,0,7.8-1.1,11-3.2c3.1-2.2,4.7-5.4,4.7-9.6c0-3.6-1.3-6.5-3.9-8.6
			c-2.6-2.1-6.3-4.1-11.1-6c-4.4-1.7-8-3.3-11-4.9c-2.9-1.6-5.4-3.8-7.5-6.5c-2.1-2.8-3.1-6.2-3.1-10.4c0-6.1,2.1-11.1,6.4-14.8
			c4.3-3.8,9.8-5.8,16.7-6c8.4,0,16.2,2.1,23.4,6.3l-4,8.1C579.9,32.5,576.9,31.3,573.7,30.4z"/>
		<path class="st2" d="M644.2,53.5v44.7h-9.1l-0.6-8.5c-1.5,3-3.9,5.5-7,7.4c-3.2,1.9-6.7,2.9-10.6,2.9c-4.1,0-7.5-1.2-10.1-3.7
			c-2.6-2.5-4-5.7-4.2-9.7v-33h10V83c0.1,2.5,0.9,4.5,2.2,6c1.3,1.5,3.3,2.3,6,2.3c2.4,0,4.7-0.7,6.7-2.2c2-1.5,3.6-3.5,4.8-6.1
			s1.8-5.5,1.8-8.6V53.5H644.2z"/>
		<path class="st2" d="M701.4,54.7c3.4,2,6,4.8,8,8.5c1.9,3.6,2.9,7.8,2.9,12.6c0,4.7-1,8.8-3.1,12.4c-2.1,3.6-5,6.3-8.6,8.3
			c-3.7,1.9-7.8,2.9-12.3,2.9c-3.2,0-6.3-0.7-9.3-2.1c-3-1.4-5.3-3.3-7.1-5.7v28.2h-10v-67h8.7l0.9,7.6c2.3-2.6,5.1-4.7,8.3-6.3
			c3.2-1.6,6.7-2.4,10.4-2.4C694.2,51.6,698,52.6,701.4,54.7z M694.1,89.2c2.4-1.3,4.3-3.2,5.8-5.5c1.4-2.3,2.2-4.9,2.2-7.8
			c0-3-0.7-5.6-2-8c-1.3-2.4-3.2-4.2-5.5-5.6c-2.3-1.4-4.9-2.1-7.7-2.1c-3.8,0-7.1,1.1-9.8,3.2c-2.7,2.1-4.5,5-5.3,8.6v7.5
			c0.6,3.5,2.2,6.3,4.9,8.5c2.7,2.2,5.9,3.3,9.6,3.3C689.1,91.2,691.7,90.5,694.1,89.2z"/>
		<path class="st2" d="M765.4,54.7c3.4,2,6,4.8,8,8.5c1.9,3.6,2.9,7.8,2.9,12.6c0,4.7-1,8.8-3.1,12.4c-2.1,3.6-5,6.3-8.6,8.3
			c-3.7,1.9-7.8,2.9-12.3,2.9c-3.2,0-6.3-0.7-9.3-2.1c-3-1.4-5.3-3.3-7.1-5.7v28.2h-10v-67h8.7l0.9,7.6c2.3-2.6,5.1-4.7,8.3-6.3
			c3.2-1.6,6.7-2.4,10.4-2.4C758.2,51.6,762,52.6,765.4,54.7z M758.1,89.2c2.4-1.3,4.3-3.2,5.8-5.5c1.4-2.3,2.2-4.9,2.2-7.8
			c0-3-0.7-5.6-2-8c-1.3-2.4-3.2-4.2-5.5-5.6c-2.3-1.4-4.9-2.1-7.7-2.1c-3.8,0-7.1,1.1-9.8,3.2c-2.7,2.1-4.5,5-5.3,8.6v7.5
			c0.6,3.5,2.2,6.3,4.9,8.5c2.7,2.2,5.9,3.3,9.6,3.3C753.1,91.2,755.7,90.5,758.1,89.2z"/>
		<path class="st2" d="M799.8,14.5v83.7h-10V14.5H799.8z"/>
		<path class="st2" d="M859.9,53.5l-28.8,66.2h-9.9l10.3-23l-20.7-43.2H822l14.5,31.9l14.1-31.9H859.9z"/>
	</g>
	<g>
		<path class="st1" d="M363.3,134.7c-1.3-0.4-2.6-0.6-3.7-0.6c-1.8,0-3.2,0.4-4.2,1.2s-1.6,1.9-1.6,3.3c0,1.3,0.6,2.5,1.8,3.3
			c1.2,0.9,2.9,1.7,5.2,2.5c1.7,0.6,3.1,1.3,4.3,2c1.2,0.7,2.1,1.7,2.9,2.9c0.8,1.2,1.1,2.8,1.1,4.7c0,1.7-0.4,3.3-1.3,4.7
			s-2.1,2.5-3.7,3.3c-1.6,0.8-3.5,1.2-5.6,1.2c-2,0-3.9-0.3-5.8-1s-3.5-1.5-4.9-2.5l1.9-3.5c1.1,0.8,2.4,1.6,4,2.1s3,0.9,4.4,0.9
			c1.7,0,3.3-0.5,4.6-1.4c1.3-0.9,2-2.2,2-4c0-1.5-0.5-2.7-1.6-3.6c-1.1-0.9-2.6-1.7-4.6-2.5c-1.8-0.7-3.4-1.4-4.6-2
			c-1.2-0.7-2.3-1.6-3.1-2.7c-0.9-1.2-1.3-2.6-1.3-4.3c0-2.5,0.9-4.6,2.7-6.2s4.1-2.4,7-2.5c3.5,0,6.8,0.9,9.8,2.6l-1.7,3.4
			C365.8,135.6,364.6,135,363.3,134.7z"/>
		<path class="st1" d="M392.7,144.3v18.6h-3.8l-0.3-3.6c-0.6,1.3-1.6,2.3-2.9,3.1c-1.3,0.8-2.8,1.2-4.4,1.2c-1.7,0-3.1-0.5-4.2-1.6
			c-1.1-1-1.7-2.4-1.7-4v-13.8h4.2v12.3c0.1,1,0.4,1.9,0.9,2.5c0.6,0.6,1.4,0.9,2.5,1c1,0,1.9-0.3,2.8-0.9c0.8-0.6,1.5-1.5,2-2.5
			s0.7-2.3,0.7-3.6v-8.7H392.7z"/>
		<path class="st1" d="M416.5,144.8c1.4,0.8,2.5,2,3.3,3.5c0.8,1.5,1.2,3.3,1.2,5.2c0,2-0.4,3.7-1.3,5.2c-0.9,1.5-2.1,2.6-3.6,3.4
			c-1.5,0.8-3.2,1.2-5.1,1.2c-1.3,0-2.6-0.3-3.9-0.9s-2.2-1.4-3-2.4v11.7H400V144h3.6l0.4,3.2c1-1.1,2.1-2,3.4-2.6
			c1.3-0.7,2.8-1,4.3-1C413.5,143.5,415.1,143.9,416.5,144.8z M413.4,159.2c1-0.6,1.8-1.3,2.4-2.3c0.6-1,0.9-2.1,0.9-3.3
			c0-1.2-0.3-2.3-0.8-3.3c-0.6-1-1.3-1.8-2.3-2.3c-1-0.6-2-0.9-3.2-0.9c-1.6,0-2.9,0.4-4.1,1.3c-1.1,0.9-1.9,2.1-2.2,3.6v3.1
			c0.2,1.4,0.9,2.6,2,3.5c1.1,0.9,2.5,1.4,4,1.4C411.3,160,412.4,159.7,413.4,159.2z"/>
		<path class="st1" d="M432.7,146c0.9-0.8,1.8-1.4,2.8-1.8c1-0.4,1.9-0.6,2.6-0.7l-0.2,4.2c-1.4-0.1-2.6,0.2-3.7,0.8
			c-1.1,0.6-2,1.4-2.6,2.5c-0.6,1.1-0.9,2.2-0.9,3.4v8.5h-4.2v-18.6h3.7l0.3,4.4C431.2,147.7,431.8,146.8,432.7,146z"/>
		<path class="st1" d="M444,135.9c0.5-0.5,1.1-0.7,1.8-0.7s1.2,0.2,1.7,0.7s0.7,1,0.7,1.7c0,0.7-0.2,1.2-0.7,1.7s-1.1,0.7-1.7,0.7
			s-1.2-0.2-1.8-0.7c-0.5-0.5-0.8-1-0.8-1.7C443.2,136.9,443.5,136.4,444,135.9z M447.7,144.3v18.6h-4.2v-18.6H447.7z"/>
		<path class="st1" d="M483.2,145.1c1.1,1,1.6,2.4,1.7,4v13.8h-4.2v-12.3c-0.1-2.2-1.1-3.3-3-3.5c-1.1,0-2,0.3-2.9,1
			c-0.9,0.6-1.5,1.5-2,2.5c-0.5,1.1-0.7,2.2-0.8,3.4v8.9h-4.2v-12.3c-0.1-2.2-1.1-3.3-3.1-3.5c-1.1,0-2,0.3-2.9,1
			c-0.9,0.6-1.5,1.5-2,2.6c-0.5,1.1-0.7,2.2-0.7,3.4v8.8H455v-18.6h3.8l0.3,3.5c0.7-1.3,1.7-2.4,2.9-3.1c1.2-0.8,2.7-1.1,4.3-1.1
			c1.5,0,2.8,0.4,3.8,1.1c1,0.7,1.7,1.7,2,2.9c0.8-1.2,1.8-2.2,3-2.9c1.2-0.7,2.5-1.1,3.9-1.1C480.7,143.5,482.2,144,483.2,145.1z"
			/>
		<path class="st1" d="M505.4,158.1l1.9,3.1c-1,0.7-2.1,1.2-3.2,1.6c-1.2,0.4-2.3,0.6-3.4,0.6c-2.1,0-3.9-0.4-5.4-1.3
			c-1.5-0.9-2.7-2-3.6-3.5c-0.8-1.5-1.3-3.2-1.3-5.1c0-1.8,0.5-3.5,1.4-5c0.9-1.5,2.2-2.7,3.8-3.6s3.3-1.3,5.2-1.3
			c2.4,0,4.5,0.7,6.1,2.1c1.6,1.4,2.8,3.4,3.4,6l-14.8,5.2c0.5,0.9,1.3,1.7,2.2,2.2c0.9,0.5,2,0.8,3.1,0.8
			C502.4,159.8,504,159.2,505.4,158.1z M496.3,148.7c-1.1,1.2-1.7,2.7-1.7,4.6c0,0.5,0,0.8,0,1l10.8-4c-0.5-1-1.1-1.8-1.9-2.5
			c-0.8-0.6-1.9-0.9-3.1-0.9C498.9,146.9,497.4,147.5,496.3,148.7z"/>
		<path class="st1" d="M531.4,145.1c1.1,1,1.7,2.4,1.8,4v13.8H529v-12.3c-0.1-1-0.4-1.9-0.9-2.5c-0.6-0.6-1.4-0.9-2.6-0.9
			c-1.7,0-3,0.7-4.1,2c-1.1,1.3-1.6,3-1.6,5v8.7h-4.2v-18.6h3.8l0.3,3.6c0.7-1.3,1.7-2.4,3-3.2c1.3-0.8,2.8-1.1,4.5-1.1
			C528.9,143.6,530.3,144.1,531.4,145.1z"/>
		<path class="st1" d="M546.5,136.1v8.2h5.1v3.3h-5.1v15.3h-4.2v-15.3h-3.4v-3.3h3.4v-8.2H546.5z"/>
		<path class="st1" d="M556.3,148.4c0.9-1.5,2.1-2.7,3.7-3.6s3.4-1.3,5.3-1.3c2,0,3.7,0.4,5.3,1.3s2.7,2.1,3.6,3.6
			c0.9,1.5,1.3,3.2,1.3,5c0,1.9-0.4,3.5-1.3,5.1c-0.9,1.5-2.1,2.7-3.6,3.6c-1.6,0.9-3.3,1.3-5.4,1.3c-2,0-3.7-0.4-5.3-1.2
			c-1.6-0.8-2.8-2-3.7-3.5c-0.9-1.5-1.3-3.2-1.3-5.2C555,151.6,555.5,149.9,556.3,148.4z M560,156.7c0.5,1,1.2,1.8,2.2,2.3
			c0.9,0.6,1.9,0.9,3,0.9c1.7,0,3.2-0.6,4.3-1.8c1.1-1.2,1.7-2.8,1.7-4.6c0-1.8-0.6-3.4-1.7-4.6c-1.1-1.2-2.6-1.9-4.3-1.9
			c-1.1,0-2.2,0.3-3.1,0.9s-1.6,1.4-2.1,2.4c-0.5,1-0.8,2.1-0.8,3.2S559.5,155.7,560,156.7z"/>
		<path class="st1" d="M582.5,162.6c-1.2-0.5-2.3-1.2-3-2.1l1.8-2.4c0.7,0.7,1.5,1.3,2.4,1.7c0.8,0.4,1.6,0.6,2.5,0.6
			c1,0,1.8-0.2,2.4-0.6c0.6-0.4,0.9-1,0.9-1.8c0-0.6-0.2-1.1-0.6-1.5c-0.4-0.4-0.8-0.7-1.3-0.9s-1.3-0.5-2.5-0.8
			c-3.2-1-4.8-2.8-4.8-5.4c0-1.6,0.6-2.9,1.7-4c1.2-1.1,2.8-1.7,4.8-1.7c1.3,0,2.5,0.2,3.5,0.5c1,0.3,2,0.9,2.8,1.6l-1.7,2.6
			c-0.5-0.5-1.1-0.9-1.8-1.2c-0.7-0.3-1.4-0.5-2.1-0.5c-0.8,0-1.6,0.2-2.2,0.6c-0.6,0.4-0.9,1-0.9,1.6c0,0.6,0.2,1,0.6,1.4
			c0.4,0.4,0.8,0.6,1.2,0.8c0.4,0.2,1.2,0.4,2.5,0.8c1.5,0.5,2.7,1.2,3.6,2c0.9,0.8,1.3,1.9,1.3,3.3c0,1.8-0.6,3.3-1.9,4.5
			c-1.3,1.2-3,1.8-5.4,1.8C585,163.3,583.7,163.1,582.5,162.6z"/>
		<path class="st1" d="M627,158.1l1.9,3.1c-1,0.7-2.1,1.2-3.2,1.6c-1.2,0.4-2.3,0.6-3.4,0.6c-2.1,0-3.9-0.4-5.4-1.3
			c-1.5-0.9-2.7-2-3.6-3.5c-0.8-1.5-1.3-3.2-1.3-5.1c0-1.8,0.5-3.5,1.4-5c0.9-1.5,2.2-2.7,3.8-3.6c1.6-0.9,3.3-1.3,5.2-1.3
			c2.4,0,4.5,0.7,6.1,2.1c1.6,1.4,2.8,3.4,3.4,6l-14.8,5.2c0.5,0.9,1.3,1.7,2.2,2.2c0.9,0.5,2,0.8,3.1,0.8
			C624,159.8,625.5,159.2,627,158.1z M617.9,148.7c-1.1,1.2-1.7,2.7-1.7,4.6c0,0.5,0,0.8,0,1l10.8-4c-0.5-1-1.1-1.8-1.9-2.5
			s-1.9-0.9-3.1-0.9C620.4,146.9,619,147.5,617.9,148.7z"/>
		<path class="st1" d="M665.3,145.1c1.1,1,1.6,2.4,1.7,4v13.8h-4.2v-12.3c-0.1-2.2-1.1-3.3-3-3.5c-1.1,0-2,0.3-2.9,1
			c-0.9,0.6-1.5,1.5-2,2.5c-0.5,1.1-0.7,2.2-0.8,3.4v8.9H650v-12.3c-0.1-2.2-1.1-3.3-3.1-3.5c-1.1,0-2,0.3-2.9,1
			c-0.9,0.6-1.5,1.5-2,2.6c-0.5,1.1-0.7,2.2-0.7,3.4v8.8h-4.2v-18.6h3.8l0.3,3.5c0.7-1.3,1.7-2.4,2.9-3.1c1.2-0.8,2.7-1.1,4.3-1.1
			c1.5,0,2.8,0.4,3.8,1.1c1,0.7,1.7,1.7,2,2.9c0.8-1.2,1.8-2.2,3-2.9c1.2-0.7,2.5-1.1,3.9-1.1C662.8,143.5,664.3,144,665.3,145.1z"
			/>
		<path class="st1" d="M710.4,162.3c-2.1,0.7-4.1,1-5.9,1c-3.4,0-6.4-0.7-9-2.1c-2.6-1.4-4.6-3.3-6-5.7c-1.4-2.4-2.1-5.2-2.1-8.2
			c0-3.5,0.7-6.6,2.2-9.2c1.5-2.6,3.5-4.6,6.1-6c2.5-1.4,5.3-2.1,8.4-2.1c1.8,0,3.6,0.2,5.2,0.7s3.1,1,4.4,1.7l-1.4,4
			c-1-0.5-2.2-1-3.6-1.4c-1.5-0.4-2.8-0.6-3.9-0.6c-2.5,0-4.7,0.5-6.7,1.5c-1.9,1-3.4,2.5-4.5,4.4c-1.1,1.9-1.6,4.1-1.6,6.6
			c0,2.3,0.5,4.4,1.6,6.3c1,1.8,2.5,3.2,4.5,4.3c1.9,1,4.1,1.5,6.6,1.5c1.1,0,2.2-0.1,3.3-0.3c1.1-0.2,2-0.5,2.7-1v-6.4h-6.5V147
			H715v13.1C714,160.9,712.5,161.6,710.4,162.3z"/>
		<path class="st1" d="M735.6,158.1l1.9,3.1c-1,0.7-2.1,1.2-3.2,1.6c-1.2,0.4-2.3,0.6-3.4,0.6c-2.1,0-3.9-0.4-5.4-1.3
			c-1.5-0.9-2.7-2-3.6-3.5c-0.8-1.5-1.3-3.2-1.3-5.1c0-1.8,0.5-3.5,1.4-5c0.9-1.5,2.2-2.7,3.8-3.6s3.3-1.3,5.2-1.3
			c2.4,0,4.5,0.7,6.1,2.1c1.6,1.4,2.8,3.4,3.4,6l-14.8,5.2c0.5,0.9,1.3,1.7,2.2,2.2c0.9,0.5,2,0.8,3.1,0.8
			C732.6,159.8,734.1,159.2,735.6,158.1z M726.5,148.7c-1.1,1.2-1.7,2.7-1.7,4.6c0,0.5,0,0.8,0,1l10.8-4c-0.5-1-1.1-1.8-1.9-2.5
			c-0.8-0.6-1.9-0.9-3.1-0.9C729,146.9,727.6,147.5,726.5,148.7z"/>
		<path class="st1" d="M751.8,146c0.9-0.8,1.8-1.4,2.8-1.8s1.9-0.6,2.6-0.7l-0.2,4.2c-1.3-0.1-2.6,0.2-3.7,0.8
			c-1.1,0.6-2,1.4-2.6,2.5c-0.6,1.1-0.9,2.2-0.9,3.4v8.5h-4.2v-18.6h3.7l0.3,4.4C750.3,147.7,750.9,146.8,751.8,146z"/>
		<path class="st1" d="M781.3,144.3v18.6h-4.2v-3.1c-0.7,0.9-1.6,1.7-2.9,2.4c-1.3,0.7-2.7,1.1-4.3,1.1c-1.8,0-3.4-0.4-4.8-1.1
			c-1.4-0.8-2.6-1.9-3.4-3.4c-0.8-1.5-1.2-3.2-1.2-5.3c0-2,0.4-3.8,1.3-5.3c0.9-1.5,2-2.7,3.5-3.5s3.1-1.2,4.8-1.2
			c1.6,0,3,0.3,4.1,1c1.2,0.7,2.1,1.6,2.8,2.7l0.3-3H781.3z M775,158.6c1.1-0.9,1.8-2,2.1-3.5v-3.7c-0.4-1.3-1.1-2.4-2.2-3.2
			c-1.1-0.8-2.4-1.2-3.9-1.2c-1.1,0-2.1,0.3-3.1,0.8c-0.9,0.5-1.7,1.3-2.2,2.3c-0.6,1-0.8,2.1-0.8,3.3c0,1.2,0.3,2.3,0.9,3.3
			c0.6,1,1.3,1.8,2.3,2.4c1,0.6,2,0.9,3.1,0.9C772.6,159.9,773.9,159.5,775,158.6z"/>
		<path class="st1" d="M792.8,128v34.9h-4.2V128H792.8z"/>
	</g>
</g>
</svg>
